# xmcd
#
# Track frame offsets:
# 150
# 15472
# 26185
# 39392
# 53992
# 65015
# 80232
# 91875
# 106947
# 121872
#
# Disc length: 1761 seconds
#
#
# Revision: 0
# Processed by: cddbd v1.5.1PL0 Copyright (c) Steve Scherf et al.
# Submitted via: FreeRIP 2.942 
#
DISCID=7e06df0a
DTITLE=Los fronterizos - Lo mejor de los Fronterizos
DYEAR=1900
DGENRE=Folk
TTITLE0=Zamba del guitarrero
TTITLE1=Allá va, allá viene
TTITLE2=Baguala salteña
TTITLE3=La tristecita
TTITLE4=La compungida
TTITLE5=La esperanzada
TTITLE6=La arenosa
TTITLE7=Resentido estoy
TTITLE8=El aguaribay
TTITLE9=Nochebuena
EXTD=
EXTT0=
EXTT1=
EXTT2=
EXTT3=
EXTT4=
EXTT5=
EXTT6=
EXTT7=
EXTT8=
EXTT9=
PLAYORDER=
